:FULLY-SPECIFIED
:FORCE-ALL-JOINTS-BE-3DOF
:DEGREES
1
root 7.46593 15.9937 -36.7321 7.11356 1.31487 -3.66776
lfemur -40.6897 6.42258 -16.3516
ltibia 43.9106 0 0
lfoot -14.6186 8.34667 0
ltoes -11.8487 0 0
rfemur -9.89801 4.72659 30.1099
rtibia 24.1198 0 0
rfoot 0 0 0
rtoes 0 0 0
lowerback -4.29912 0.189404 0.939401
upperback -1.51886 0.185188 2.55702
thorax 0.845091 0.0960327 2.10705
lowerneck -18.6579 -5.17414 -13.3376
upperneck 13.6797 -6.63107 16.9236
head 8.38994 -2.28192 7.17028
lclavicle 6.33626e-15 1.59028e-14 0
lhumerus -35.9267 -2.97855 86.2544
lradius 27.4056 0 0
lwrist 7.30557 0 0
lhand -13.3003 -23.0211 0
lfingers 7.12502 0 0
lthumb 12.8038 6.56624 0
rclavicle 6.33626e-15 1.59028e-14 0
rhumerus -38.7688 17.4551 -84.1031
rradius 56.1989 0 0
rwrist -28.5696 0 0
rhand -33.2015 -25.7513 0
rfingers 7.12502 0 0
rthumb -6.4087 -55.6344 0
2
root 7.47265 15.9928 -36.6057 7.07243 1.33168 -3.55777
lfemur -40.7356 6.39411 -16.5868
ltibia 42.9455 0 0
lfoot -14.5173 7.89505 0
ltoes -11.6285 0 0
rfemur -9.77544 4.82366 30.0244
rtibia 24.2616 0 0
rfoot 2.62201 0.259188 0
rtoes 0.90332 0 0
lowerback -4.27314 0.163831 0.837996
upperback -1.54709 0.158431 2.51388
thorax 0.801938 0.0827242 2.11621
lowerneck -18.4228 -5.08629 -13.4123
upperneck 13.5686 -6.52311 17.0436
head 8.29986 -2.23549 7.2385
lclavicle 5.7363e-15 6.7058e-15 0
lhumerus -35.8624 -2.87526 86.2825
lradius 27.2755 0 0
lwrist 7.24555 0 0
lhand -13.4918 -23.2317 0
lfingers 7.12502 0 0
lthumb 12.6197 6.37426 0
rclavicle 5.7363e-15 6.7058e-15 0
rhumerus -38.7609 17.5355 -84.1039
rradius 56.4856 0 0
rwrist -29.4946 0 0
rhand -32.8466 -26.358 0
rfingers 7.12502 0 0
rthumb -6.06606 -56.2499 0
3
root 7.47937 15.992 -36.4792 7.02651 1.17363 -3.49697
lfemur -40.7635 6.15138 -16.5512
ltibia 41.1993 0 0
lfoot -14.415 7.66068 0
ltoes -11.5751 0 0
rfemur -9.15801 4.96623 29.9715
rtibia 23.9597 0 0
rfoot 3.81383 0.377 0
rtoes 1.31392 0 0
lowerback -4.31882 0.168588 0.762874
upperback -1.55307 0.16792 2.4833
thorax 0.820709 0.0873782 2.12699
lowerneck -18.2821 -5.00485 -13.3935
upperneck 13.5672 -6.43383 17.0648
head 8.25902 -2.19633 7.25529
lclavicle 4.84653e-15 -1.91418e-15 0
lhumerus -35.9457 -2.96965 86.4365
lradius 27.2794 0 0
lwrist 7.18504 0 0
lhand -13.407 -23.3715 0
lfingers 7.12502 0 0
lthumb 12.7015 6.23184 0
rclavicle 4.84653e-15 -1.91418e-15 0
rhumerus -38.8084 17.6645 -84.2306
rradius 56.9667 0 0
rwrist -30.5476 0 0
rhand -32.4638 -27.0373 0
rfingers 7.12502 0 0
rthumb -5.69646 -56.9387 0
4
root 7.48609 15.9911 -36.3528 6.97948 0.892253 -3.4766
lfemur -40.7761 5.76022 -16.3132
ltibia 38.9591 0 0
lfoot -14.3175 7.603 0
ltoes -11.6504 0 0
rfemur -8.20088 5.13535 29.946
rtibia 23.3393 0 0
rfoot 3.86151 0.381713 0
rtoes 1.33034 0 0
lowerback -4.41608 0.195973 0.711682
upperback -1.54192 0.20424 2.46387
thorax 0.88518 0.105332 2.13842
lowerneck -18.2203 -4.93271 -13.305
upperneck 13.6488 -6.36352 17.0104
head 8.25758 -2.16481 7.23235
lclavicle 3.78661e-15 -9.62859e-15 0
lhumerus -36.1358 -3.20805 86.677
lradius 27.3841 0 0
lwrist 7.12745 0 0
lhand -13.1185 -23.4503 0
lfingers 7.12502 0 0
lthumb 12.9796 6.1346 0
rclavicle 3.78661e-15 -9.62859e-15 0
rhumerus -38.8951 17.8233 -84.4454
rradius 57.5683 0 0
rwrist -31.6398 0 0
rhand -32.0808 -27.7343 0
rfingers 7.12502 0 0
rthumb -5.32666 -57.6453 0
5
root 7.4928 15.9902 -36.2264 6.93502 0.539098 -3.48791
lfemur -40.7766 5.28646 -15.9412
ltibia 36.5117 0 0
lfoot -14.2306 7.68148 0
ltoes -11.8165 0 0
rfemur -7.05917 5.31209 29.9428
rtibia 22.5261 0 0
rfoot 3.05107 0.3016 0
rtoes 1.05114 0 0
lowerback -4.54484 0.238279 0.682066
upperback -1.51878 0.257979 2.45418
thorax 0.979127 0.131922 2.14949
lowerneck -18.222 -4.87272 -13.1709
upperneck 13.7864 -6.31246 16.9035
head 8.28566 -2.14125 7.18139
lclavicle 2.67623e-15 -1.61089e-14 0
lhumerus -36.3919 -3.5368 86.9647
lradius 27.5566 0 0
lwrist 7.07622 0 0
lhand -12.6986 -23.4779 0
lfingers 7.12502 0 0
lthumb 13.3841 6.07813 0
rclavicle 2.67623e-15 -1.61089e-14 0
rhumerus -39.0048 17.9928 -84.7105
rradius 58.2164 0 0
rwrist -32.6822 0 0
rhand -31.7253 -28.3943 0
rfingers 7.12502 0 0
rthumb -4.98345 -58.314 0
6
root 7.49952 15.9894 -36.0999 6.89681 0.165707 -3.52214
lfemur -40.7677 4.79593 -15.5037
ltibia 34.1441 0 0
lfoot -14.1602 7.85559 0
ltoes -12.0353 0 0
rfemur -5.88804 5.4775 29.9569
rtibia 21.6452 0 0
rfoot 1.66855 0.164937 0
rtoes 0.57484 0 0
lowerback -4.68502 0.287803 0.671672
upperback -1.4888 0.31972 2.45279
thorax 1.08633 0.162486 2.15923
lowerneck -18.2716 -4.82774 -13.0152
upperneck 13.9532 -6.28092 16.767
head 8.3334 -2.12602 7.11413
lclavicle 1.63504e-15 -2.10265e-14 0
lhumerus -36.6734 -3.90221 87.2605
lradius 27.7637 0 0
lwrist 7.03475 0 0
lhand -12.2198 -23.4639 0
lfingers 7.12502 0 0
lthumb 13.8454 6.05803 0
rclavicle 1.63504e-15 -2.10265e-14 0
rhumerus -39.1213 18.1541 -84.988
rradius 58.8371 0 0
rwrist -33.5861 0 0
rhand -31.4251 -28.9622 0
rfingers 7.12502 0 0
rthumb -4.69361 -58.8894 0
7
root 7.50624 15.9885 -35.9735 6.86854 -0.17638 -3.57052
lfemur -40.7524 4.35447 -15.069
ltibia 32.1433 0 0
lfoot -14.1121 8.08479 0
ltoes -12.2687 0 0
rfemur -4.84262 5.61262 29.9831
rtibia 20.8221 0 0
rfoot 0 0 0
rtoes 0 0 0
lowerback -4.81653 0.336841 0.678146
upperback -1.45711 0.38005 2.45831
thorax 1.19056 0.192362 2.16664
lowerneck -18.3536 -4.80065 -12.8619
upperneck 14.1223 -6.26921 16.6241
head 8.39095 -2.11947 7.04227
lclavicle 7.82715e-16 -2.40529e-14 0
lhumerus -36.9393 -4.25062 87.5249
lradius 27.9725 0 0
lwrist 7.00648 0 0
lhand -11.7544 -23.4181 0
lfingers 7.12502 0 0
lthumb 14.2937 6.0699 0
rclavicle 7.82715e-16 -2.40529e-14 0
rhumerus -39.2285 18.288 -85.2402
rradius 59.3563 0 0
rwrist -34.2626 0 0
rhand -31.2079 -29.3832 0
rfingers 7.12502 0 0
rthumb -4.48392 -59.3158 0
8
root 7.51573 15.9834 -35.84 6.84879 -0.499139 -3.63172
lfemur -40.7257 3.95175 -14.6228
ltibia 30.4445 0 0
lfoot -14.072 8.38339 0
ltoes -12.6185 0 0
rfemur -3.88342 5.71419 30.0207
rtibia 20.0062 0 0
rfoot -2.50202 -0.257441 0
rtoes -0.857061 0 0
lowerback -4.95092 0.386641 0.696248
upperback -1.41553 0.440716 2.47193
thorax 1.30631 0.222295 2.1761
lowerneck -18.5046 -4.80007 -12.6814
upperneck 14.3235 -6.29192 16.447
head 8.47505 -2.12738 6.94939
lclavicle 4.04133e-18 -2.44123e-14 0
lhumerus -37.2138 -4.61489 87.7737
lradius 28.2347 0 0
lwrist 6.99595 0 0
lhand -11.2288 -23.2976 0
lfingers 7.12502 0 0
lthumb 14.7999 6.15082 0
rclavicle 4.04133e-18 -2.44123e-14 0
rhumerus -39.3211 18.3939 -85.4711
rradius 59.786 0 0
rwrist -34.6776 0 0
rhand -31.0896 -29.6371 0
rfingers 7.12502 0 0
rthumb -4.36966 -59.5726 0
9
root 7.52521 15.9783 -35.7064 6.83435 -0.846198 -3.71248
lfemur -40.6842 3.53303 -14.1075
ltibia 28.8053 0 0
lfoot -14.0323 8.78668 0
ltoes -13.1354 0 0
rfemur -2.87844 5.7967 30.0735
rtibia 19.087 0 0
rfoot -6.17582 -0.642851 0
rtoes -2.11191 0 0
lowerback -5.10654 0.443617 0.726813
upperback -1.3583 0.509599 2.49503
thorax 1.44945 0.256164 2.18927
lowerneck -18.7444 -4.82543 -12.4486
upperneck 14.5843 -6.35175 16.2115
head 8.59692 -2.15064 6.82285
lclavicle -8.19756e-16 -2.22123e-14 0
lhumerus -37.5341 -5.04453 88.0414
lradius 28.5872 0 0
lwrist 7.00133 0 0
lhand -10.5702 -23.086 0
lfingers 7.12502 0 0
lthumb 15.4341 6.31173 0
rclavicle -8.19756e-16 -2.22123e-14 0
rhumerus -39.4111 18.4869 -85.7117
rradius 60.1879 0 0
rwrist -34.8953 0 0
rhand -31.051 -29.7637 0
rfingers 7.12502 0 0
rthumb -4.33246 -59.7002 0
10
root 7.5347 15.9732 -35.5729 6.82616 -1.21349 -3.81616
lfemur -40.6333 3.09755 -13.5266
ltibia 27.2459 0 0
lfoot -14.0091 9.2856 0
ltoes -13.7051 0 0
rfemur -1.84403 5.86788 30.1436
rtibia 18.1002 0 0
rfoot -10.4217 -1.08481 0
rtoes -3.56385 0 0
lowerback -5.27359 0.507811 0.7766
upperback -1.29423 0.586485 2.52644
thorax 1.60585 0.294008 2.2011
lowerneck -19.032 -4.8658 -12.1942
upperneck 14.8743 -6.43111 15.9466
head 8.73847 -2.18222 6.68
lclavicle -1.57436e-15 -1.84497e-14 0
lhumerus -37.8798 -5.51083 88.317
lradius 28.9744 0 0
lwrist 7.01649 0 0
lhand -9.85275 -22.8329 0
lfingers 7.12502 0 0
lthumb 16.1249 6.50901 0
rclavicle -1.57436e-15 -1.84497e-14 0
rhumerus -39.5079 18.5716 -85.9648
rradius 60.5623 0 0
rwrist -34.9744 0 0
rhand -31.0678 -29.7984 0
rfingers 7.12502 0 0
rthumb -4.34863 -59.7343 0
11
root 7.54418 15.9681 -35.4394 6.82517 -1.59697 -3.94612
lfemur -40.5787 2.64452 -12.8837
ltibia 25.7866 0 0
lfoot -14.0184 9.87108 0
ltoes -14.213 0 0
rfemur -0.796548 5.93544 30.2329
rtibia 17.0815 0 0
rfoot -14.6399 -1.5119 0
rtoes -5.01218 0 0
lowerback -5.44223 0.579265 0.852368
upperback -1.23211 0.67116 2.56501
thorax 1.76136 0.335863 2.20655
lowerneck -19.3268 -4.91027 -11.9489
upperneck 15.163 -6.51242 15.681
head 8.88156 -2.21511 6.5382
lclavicle -2.14545e-15 -1.41211e-14 0
lhumerus -38.2301 -5.98511 88.5897
lradius 29.3407 0 0
lwrist 7.03527 0 0
lhand -9.15026 -22.5878 0
lfingers 7.12502 0 0
lthumb 16.8013 6.69905 0
rclavicle -2.14545e-15 -1.41211e-14 0
rhumerus -39.621 18.6527 -86.2331
rradius 60.9096 0 0
rwrist -34.9737 0 0
rhand -31.1153 -29.7762 0
rfingers 7.12502 0 0
rthumb -4.39449 -59.711 0
